<?xml version="1.0" encoding="UTF-8" standalone="no"?>
<!DOCTYPE svg PUBLIC "-//W3C//DTD SVG 1.1//EN"
 "http://www.w3.org/Graphics/SVG/1.1/DTD/svg11.dtd">
<!-- Generated by graphviz version 2.43.0 (0)
 -->
<!-- Title: dependency&#45;cruiser output Pages: 1 -->
<svg width="856pt" height="333pt"
 viewBox="0.00 0.00 856.22 333.00" xmlns="http://www.w3.org/2000/svg" xmlns:xlink="http://www.w3.org/1999/xlink">
<g id="graph0" class="graph" transform="scale(1 1) rotate(0) translate(4 329)">
<title>dependency&#45;cruiser output</title>
<polygon fill="white" stroke="transparent" points="-4,4 -4,-329 852.22,-329 852.22,4 -4,4"/>
<g id="clust1" class="cluster">
<title>cluster_src</title>
<path fill="#ffffff" stroke="black" stroke-width="2" d="M20,-8C20,-8 828.22,-8 828.22,-8 834.22,-8 840.22,-14 840.22,-20 840.22,-20 840.22,-305 840.22,-305 840.22,-311 834.22,-317 828.22,-317 828.22,-317 20,-317 20,-317 14,-317 8,-311 8,-305 8,-305 8,-20 8,-20 8,-14 14,-8 20,-8"/>
<text text-anchor="middle" x="424.11" y="-305.8" font-family="Helvetica,sans-Serif" font-weight="bold" font-size="9.00">src</text>
</g>
<g id="clust2" class="cluster">
<title>cluster_src/actions</title>
<path fill="#ffffff" stroke="black" stroke-width="2" d="M359.61,-114C359.61,-114 406.14,-114 406.14,-114 412.14,-114 418.14,-120 418.14,-126 418.14,-126 418.14,-182 418.14,-182 418.14,-188 412.14,-194 406.14,-194 406.14,-194 359.61,-194 359.61,-194 353.61,-194 347.61,-188 347.61,-182 347.61,-182 347.61,-126 347.61,-126 347.61,-120 353.61,-114 359.61,-114"/>
<text text-anchor="middle" x="382.87" y="-182.8" font-family="Helvetica,sans-Serif" font-weight="bold" font-size="9.00">actions</text>
</g>
<g id="clust3" class="cluster">
<title>cluster_src/assets</title>
<path fill="#ffffff" stroke="black" stroke-width="2" d="M451.64,-153C451.64,-153 497.64,-153 497.64,-153 503.64,-153 509.64,-159 509.64,-165 509.64,-165 509.64,-192 509.64,-192 509.64,-198 503.64,-204 497.64,-204 497.64,-204 451.64,-204 451.64,-204 445.64,-204 439.64,-198 439.64,-192 439.64,-192 439.64,-165 439.64,-165 439.64,-159 445.64,-153 451.64,-153"/>
<text text-anchor="middle" x="474.64" y="-192.8" font-family="Helvetica,sans-Serif" font-weight="bold" font-size="9.00">assets</text>
</g>
<g id="clust4" class="cluster">
<title>cluster_src/components</title>
<path fill="#ffffff" stroke="black" stroke-width="2" d="M358.61,-212C358.61,-212 497.64,-212 497.64,-212 503.64,-212 509.64,-218 509.64,-224 509.64,-224 509.64,-280 509.64,-280 509.64,-286 503.64,-292 497.64,-292 497.64,-292 358.61,-292 358.61,-292 352.61,-292 346.61,-286 346.61,-280 346.61,-280 346.61,-224 346.61,-224 346.61,-218 352.61,-212 358.61,-212"/>
<text text-anchor="middle" x="428.13" y="-280.8" font-family="Helvetica,sans-Serif" font-weight="bold" font-size="9.00">components</text>
</g>
<g id="clust5" class="cluster">
<title>cluster_src/constants</title>
<path fill="#ffffff" stroke="black" stroke-width="2" d="M755.19,-113C755.19,-113 820.22,-113 820.22,-113 826.22,-113 832.22,-119 832.22,-125 832.22,-125 832.22,-152 832.22,-152 832.22,-158 826.22,-164 820.22,-164 820.22,-164 755.19,-164 755.19,-164 749.19,-164 743.19,-158 743.19,-152 743.19,-152 743.19,-125 743.19,-125 743.19,-119 749.19,-113 755.19,-113"/>
<text text-anchor="middle" x="787.7" y="-152.8" font-family="Helvetica,sans-Serif" font-weight="bold" font-size="9.00">constants</text>
</g>
<g id="clust6" class="cluster">
<title>cluster_src/containers</title>
<path fill="#ffffff" stroke="black" stroke-width="2" d="M226.56,-164C226.56,-164 314.11,-164 314.11,-164 320.11,-164 326.11,-170 326.11,-176 326.11,-176 326.11,-203 326.11,-203 326.11,-209 320.11,-215 314.11,-215 314.11,-215 226.56,-215 226.56,-215 220.56,-215 214.56,-209 214.56,-203 214.56,-203 214.56,-176 214.56,-176 214.56,-170 220.56,-164 226.56,-164"/>
<text text-anchor="middle" x="270.33" y="-203.8" font-family="Helvetica,sans-Serif" font-weight="bold" font-size="9.00">containers</text>
</g>
<g id="clust7" class="cluster">
<title>cluster_src/reducers</title>
<path fill="#ffffff" stroke="black" stroke-width="2" d="M609.66,-41C609.66,-41 723.19,-41 723.19,-41 729.19,-41 735.19,-47 735.19,-53 735.19,-53 735.19,-109 735.19,-109 735.19,-115 729.19,-121 723.19,-121 723.19,-121 609.66,-121 609.66,-121 603.66,-121 597.66,-115 597.66,-109 597.66,-109 597.66,-53 597.66,-53 597.66,-47 603.66,-41 609.66,-41"/>
<text text-anchor="middle" x="666.42" y="-109.8" font-family="Helvetica,sans-Serif" font-weight="bold" font-size="9.00">reducers</text>
</g>
<g id="clust8" class="cluster">
<title>cluster_src/routes</title>
<path fill="#ffffff" stroke="black" stroke-width="2" d="M119.28,-197C119.28,-197 165.28,-197 165.28,-197 171.28,-197 177.28,-203 177.28,-209 177.28,-209 177.28,-236 177.28,-236 177.28,-242 171.28,-248 165.28,-248 165.28,-248 119.28,-248 119.28,-248 113.28,-248 107.28,-242 107.28,-236 107.28,-236 107.28,-209 107.28,-209 107.28,-203 113.28,-197 119.28,-197"/>
<text text-anchor="middle" x="142.28" y="-236.8" font-family="Helvetica,sans-Serif" font-weight="bold" font-size="9.00">routes</text>
</g>
<g id="clust9" class="cluster">
<title>cluster_src/store</title>
<path fill="#ffffff" stroke="black" stroke-width="2" d="M451.64,-35C451.64,-35 577.66,-35 577.66,-35 583.66,-35 589.66,-41 589.66,-47 589.66,-47 589.66,-103 589.66,-103 589.66,-109 583.66,-115 577.66,-115 577.66,-115 451.64,-115 451.64,-115 445.64,-115 439.64,-109 439.64,-103 439.64,-103 439.64,-47 439.64,-47 439.64,-41 445.64,-35 451.64,-35"/>
<text text-anchor="middle" x="514.65" y="-103.8" font-family="Helvetica,sans-Serif" font-weight="bold" font-size="9.00">store</text>
</g>
<g id="clust10" class="cluster">
<title>cluster_src/styles</title>
<path fill="#ffffff" stroke="black" stroke-width="2" d="M346.11,-26C346.11,-26 419.64,-26 419.64,-26 425.64,-26 431.64,-32 431.64,-38 431.64,-38 431.64,-94 431.64,-94 431.64,-100 425.64,-106 419.64,-106 419.64,-106 346.11,-106 346.11,-106 340.11,-106 334.11,-100 334.11,-94 334.11,-94 334.11,-38 334.11,-38 334.11,-32 340.11,-26 346.11,-26"/>
<text text-anchor="middle" x="382.87" y="-94.8" font-family="Helvetica,sans-Serif" font-weight="bold" font-size="9.00">styles</text>
</g>
<g id="clust11" class="cluster">
<title>cluster_src/tests</title>
<path fill="#ffffff" stroke="black" stroke-width="2" d="M90,-138C90,-138 194.56,-138 194.56,-138 200.56,-138 206.56,-144 206.56,-150 206.56,-150 206.56,-177 206.56,-177 206.56,-183 200.56,-189 194.56,-189 194.56,-189 90,-189 90,-189 84,-189 78,-183 78,-177 78,-177 78,-150 78,-150 78,-144 84,-138 90,-138"/>
<text text-anchor="middle" x="142.28" y="-177.8" font-family="Helvetica,sans-Serif" font-weight="bold" font-size="9.00">tests</text>
</g>
<g id="clust12" class="cluster">
<title>cluster_src/utils</title>
<path fill="#ffffff" stroke="black" stroke-width="2" d="M105.35,-16C105.35,-16 179.21,-16 179.21,-16 185.21,-16 191.21,-22 191.21,-28 191.21,-28 191.21,-55 191.21,-55 191.21,-61 185.21,-67 179.21,-67 179.21,-67 105.35,-67 105.35,-67 99.35,-67 93.35,-61 93.35,-55 93.35,-55 93.35,-28 93.35,-28 93.35,-22 99.35,-16 105.35,-16"/>
<text text-anchor="middle" x="142.28" y="-55.8" font-family="Helvetica,sans-Serif" font-weight="bold" font-size="9.00">utils</text>
</g>
<!-- src/actions/counter.js -->
<g id="node1" class="node">
<title>src/actions/counter.js</title>
<g id="a_node1"><a xlink:href="src/actions/counter.js" xlink:title="counter.js">
<path fill="#ffffcc" stroke="black" d="M404.24,-168.5C404.24,-168.5 361.51,-168.5 361.51,-168.5 358.68,-168.5 355.85,-165.67 355.85,-162.83 355.85,-162.83 355.85,-157.17 355.85,-157.17 355.85,-154.33 358.68,-151.5 361.51,-151.5 361.51,-151.5 404.24,-151.5 404.24,-151.5 407.07,-151.5 409.9,-154.33 409.9,-157.17 409.9,-157.17 409.9,-162.83 409.9,-162.83 409.9,-165.67 407.07,-168.5 404.24,-168.5"/>
<text text-anchor="middle" x="382.87" y="-157.3" font-family="Helvetica,sans-Serif" font-size="9.00">counter.js</text>
</a>
</g>
</g>
<!-- src/constants/actionTypes.js -->
<g id="node2" class="node">
<title>src/constants/actionTypes.js</title>
<g id="a_node2"><a xlink:href="src/constants/actionTypes.js" xlink:title="actionTypes.js">
<path fill="#ffffcc" stroke="black" d="M818.57,-138.5C818.57,-138.5 756.84,-138.5 756.84,-138.5 754.01,-138.5 751.17,-135.67 751.17,-132.83 751.17,-132.83 751.17,-127.17 751.17,-127.17 751.17,-124.33 754.01,-121.5 756.84,-121.5 756.84,-121.5 818.57,-121.5 818.57,-121.5 821.4,-121.5 824.24,-124.33 824.24,-127.17 824.24,-127.17 824.24,-132.83 824.24,-132.83 824.24,-135.67 821.4,-138.5 818.57,-138.5"/>
<text text-anchor="middle" x="787.7" y="-127.3" font-family="Helvetica,sans-Serif" font-size="9.00">actionTypes.js</text>
</a>
</g>
</g>
<!-- src/actions/counter.js&#45;&gt;src/constants/actionTypes.js -->
<g id="edge1" class="edge">
<title>src/actions/counter.js&#45;&gt;src/constants/actionTypes.js</title>
<path fill="none" stroke="#000000" stroke-width="2" stroke-opacity="0.200000" d="M410.3,-154.08C417.43,-152 425,-149.33 431.64,-146 435.62,-144.01 435.49,-141.6 439.64,-140 485.05,-122.52 500,-130 548.65,-130 548.65,-130 548.65,-130 633.66,-130 671.24,-130 714.01,-130 744.77,-130"/>
<polygon fill="#000000" fill-opacity="0.200000" stroke="#000000" stroke-width="2" stroke-opacity="0.200000" points="745.14,-132.1 751.14,-130 745.14,-127.9 745.14,-132.1"/>
</g>
<!-- src/store/index.js -->
<g id="node3" class="node">
<title>src/store/index.js</title>
<g id="a_node3"><a xlink:href="src/store/index.js" xlink:title="index.js">
<path fill="#ffffcc" stroke="black" d="M495.98,-74.5C495.98,-74.5 453.31,-74.5 453.31,-74.5 450.48,-74.5 447.64,-71.67 447.64,-68.83 447.64,-68.83 447.64,-63.17 447.64,-63.17 447.64,-60.33 450.48,-57.5 453.31,-57.5 453.31,-57.5 495.98,-57.5 495.98,-57.5 498.81,-57.5 501.64,-60.33 501.64,-63.17 501.64,-63.17 501.64,-68.83 501.64,-68.83 501.64,-71.67 498.81,-74.5 495.98,-74.5"/>
<text text-anchor="middle" x="474.64" y="-63.3" font-family="Helvetica,sans-Serif" font-size="9.00">index.js</text>
</a>
</g>
</g>
<!-- src/actions/counter.js&#45;&gt;src/store/index.js -->
<g id="edge2" class="edge">
<title>src/actions/counter.js&#45;&gt;src/store/index.js</title>
<path fill="none" stroke="#000000" stroke-width="2" stroke-opacity="0.200000" d="M410.32,-156.71C417.93,-154.66 425.76,-151.35 431.64,-146 438.73,-139.56 435.49,-134.63 439.64,-126 447.4,-109.86 457.69,-92.11 464.92,-80.13"/>
<polygon fill="#000000" fill-opacity="0.200000" stroke="#000000" stroke-width="2" stroke-opacity="0.200000" points="466.87,-80.96 468.19,-74.74 463.28,-78.78 466.87,-80.96"/>
</g>
<!-- src/store/storeDev.js -->
<g id="node18" class="node">
<title>src/store/storeDev.js</title>
<g id="a_node18"><a xlink:href="src/store/storeDev.js" xlink:title="storeDev.js">
<path fill="#ffffcc" stroke="black" d="M574.34,-60.5C574.34,-60.5 524.97,-60.5 524.97,-60.5 522.13,-60.5 519.3,-57.67 519.3,-54.83 519.3,-54.83 519.3,-49.17 519.3,-49.17 519.3,-46.33 522.13,-43.5 524.97,-43.5 524.97,-43.5 574.34,-43.5 574.34,-43.5 577.17,-43.5 580,-46.33 580,-49.17 580,-49.17 580,-54.83 580,-54.83 580,-57.67 577.17,-60.5 574.34,-60.5"/>
<text text-anchor="middle" x="549.65" y="-49.3" font-family="Helvetica,sans-Serif" font-size="9.00">storeDev.js</text>
</a>
</g>
</g>
<!-- src/store/index.js&#45;&gt;src/store/storeDev.js -->
<g id="edge20" class="edge">
<title>src/store/index.js&#45;&gt;src/store/storeDev.js</title>
<path fill="none" stroke="#000000" stroke-width="2" stroke-opacity="0.200000" d="M502,-60.95C505.65,-60.25 509.44,-59.52 513.21,-58.8"/>
<polygon fill="#000000" fill-opacity="0.200000" stroke="#000000" stroke-width="2" stroke-opacity="0.200000" points="513.62,-60.86 519.11,-57.66 512.83,-56.73 513.62,-60.86"/>
</g>
<!-- src/store/storeProd.js -->
<g id="node19" class="node">
<title>src/store/storeProd.js</title>
<g id="a_node19"><a xlink:href="src/store/storeProd.js" xlink:title="storeProd.js">
<path fill="#ffffcc" stroke="black" d="M576,-89.5C576,-89.5 523.3,-89.5 523.3,-89.5 520.47,-89.5 517.63,-86.67 517.63,-83.83 517.63,-83.83 517.63,-78.17 517.63,-78.17 517.63,-75.33 520.47,-72.5 523.3,-72.5 523.3,-72.5 576,-72.5 576,-72.5 578.84,-72.5 581.67,-75.33 581.67,-78.17 581.67,-78.17 581.67,-83.83 581.67,-83.83 581.67,-86.67 578.84,-89.5 576,-89.5"/>
<text text-anchor="middle" x="549.65" y="-78.3" font-family="Helvetica,sans-Serif" font-size="9.00">storeProd.js</text>
</a>
</g>
</g>
<!-- src/store/index.js&#45;&gt;src/store/storeProd.js -->
<g id="edge21" class="edge">
<title>src/store/index.js&#45;&gt;src/store/storeProd.js</title>
<path fill="none" stroke="#000000" stroke-width="2" stroke-opacity="0.200000" d="M502,-71.42C505.17,-72.07 508.44,-72.74 511.72,-73.41"/>
<polygon fill="#000000" fill-opacity="0.200000" stroke="#000000" stroke-width="2" stroke-opacity="0.200000" points="511.31,-75.47 517.61,-74.62 512.16,-71.36 511.31,-75.47"/>
</g>
<!-- src/actions/data.js -->
<g id="node4" class="node">
<title>src/actions/data.js</title>
<g id="a_node4"><a xlink:href="src/actions/data.js" xlink:title="data.js">
<path fill="#ccffcc" stroke="black" d="M404.21,-139.5C404.21,-139.5 361.54,-139.5 361.54,-139.5 358.71,-139.5 355.87,-136.67 355.87,-133.83 355.87,-133.83 355.87,-128.17 355.87,-128.17 355.87,-125.33 358.71,-122.5 361.54,-122.5 361.54,-122.5 404.21,-122.5 404.21,-122.5 407.04,-122.5 409.87,-125.33 409.87,-128.17 409.87,-128.17 409.87,-133.83 409.87,-133.83 409.87,-136.67 407.04,-139.5 404.21,-139.5"/>
<text text-anchor="middle" x="382.87" y="-128.3" font-family="Helvetica,sans-Serif" font-size="9.00">data.js</text>
</a>
</g>
</g>
<!-- src/assets/logo.svg -->
<g id="node5" class="node">
<title>src/assets/logo.svg</title>
<g id="a_node5"><a xlink:href="src/assets/logo.svg" xlink:title="logo.svg">
<path fill="#ffffcc" stroke="black" d="M495.98,-178.5C495.98,-178.5 453.31,-178.5 453.31,-178.5 450.48,-178.5 447.64,-175.67 447.64,-172.83 447.64,-172.83 447.64,-167.17 447.64,-167.17 447.64,-164.33 450.48,-161.5 453.31,-161.5 453.31,-161.5 495.98,-161.5 495.98,-161.5 498.81,-161.5 501.64,-164.33 501.64,-167.17 501.64,-167.17 501.64,-172.83 501.64,-172.83 501.64,-175.67 498.81,-178.5 495.98,-178.5"/>
<text text-anchor="middle" x="474.64" y="-167.3" font-family="Helvetica,sans-Serif" font-size="9.00">logo.svg</text>
</a>
</g>
</g>
<!-- src/components/Counter.js -->
<g id="node6" class="node">
<title>src/components/Counter.js</title>
<g id="a_node6"><a xlink:href="src/components/Counter.js" xlink:title="Counter.js">
<path fill="#ffffcc" stroke="black" d="M405.24,-237.5C405.24,-237.5 360.51,-237.5 360.51,-237.5 357.68,-237.5 354.85,-234.67 354.85,-231.83 354.85,-231.83 354.85,-226.17 354.85,-226.17 354.85,-223.33 357.68,-220.5 360.51,-220.5 360.51,-220.5 405.24,-220.5 405.24,-220.5 408.07,-220.5 410.9,-223.33 410.9,-226.17 410.9,-226.17 410.9,-231.83 410.9,-231.83 410.9,-234.67 408.07,-237.5 405.24,-237.5"/>
<text text-anchor="middle" x="382.87" y="-226.3" font-family="Helvetica,sans-Serif" font-size="9.00">Counter.js</text>
</a>
</g>
</g>
<!-- src/components/Jexcel.js -->
<g id="node7" class="node">
<title>src/components/Jexcel.js</title>
<g id="a_node7"><a xlink:href="src/components/Jexcel.js" xlink:title="Jexcel.js">
<path fill="#ffffcc" stroke="black" d="M495.98,-237.5C495.98,-237.5 453.31,-237.5 453.31,-237.5 450.48,-237.5 447.64,-234.67 447.64,-231.83 447.64,-231.83 447.64,-226.17 447.64,-226.17 447.64,-223.33 450.48,-220.5 453.31,-220.5 453.31,-220.5 495.98,-220.5 495.98,-220.5 498.81,-220.5 501.64,-223.33 501.64,-226.17 501.64,-226.17 501.64,-231.83 501.64,-231.83 501.64,-234.67 498.81,-237.5 495.98,-237.5"/>
<text text-anchor="middle" x="474.64" y="-226.3" font-family="Helvetica,sans-Serif" font-size="9.00">Jexcel.js</text>
</a>
</g>
</g>
<!-- src/components/Counter.js&#45;&gt;src/components/Jexcel.js -->
<g id="edge3" class="edge">
<title>src/components/Counter.js&#45;&gt;src/components/Jexcel.js</title>
<path fill="none" stroke="#000000" stroke-width="2" stroke-opacity="0.200000" d="M411.3,-229C420.86,-229 431.68,-229 441.59,-229"/>
<polygon fill="#000000" fill-opacity="0.200000" stroke="#000000" stroke-width="2" stroke-opacity="0.200000" points="441.62,-231.1 447.62,-229 441.62,-226.9 441.62,-231.1"/>
</g>
<!-- src/components/Jexcel.js&#45;&gt;src/constants/actionTypes.js -->
<g id="edge5" class="edge">
<title>src/components/Jexcel.js&#45;&gt;src/constants/actionTypes.js</title>
<path fill="none" stroke="#000000" stroke-width="2" stroke-opacity="0.200000" d="M501.89,-221.13C548.85,-206.97 650.26,-176.08 735.19,-148 742.29,-145.65 749.9,-143.04 757.04,-140.55"/>
<polygon fill="#000000" fill-opacity="0.200000" stroke="#000000" stroke-width="2" stroke-opacity="0.200000" points="757.94,-142.47 762.91,-138.5 756.55,-138.5 757.94,-142.47"/>
</g>
<!-- src/components/Header.js -->
<g id="node8" class="node">
<title>src/components/Header.js</title>
<g id="a_node8"><a xlink:href="src/components/Header.js" xlink:title="Header.js">
<path fill="#ffffcc" stroke="black" d="M404.23,-266.5C404.23,-266.5 361.52,-266.5 361.52,-266.5 358.68,-266.5 355.85,-263.67 355.85,-260.83 355.85,-260.83 355.85,-255.17 355.85,-255.17 355.85,-252.33 358.68,-249.5 361.52,-249.5 361.52,-249.5 404.23,-249.5 404.23,-249.5 407.07,-249.5 409.9,-252.33 409.9,-255.17 409.9,-255.17 409.9,-260.83 409.9,-260.83 409.9,-263.67 407.07,-266.5 404.23,-266.5"/>
<text text-anchor="middle" x="382.87" y="-255.3" font-family="Helvetica,sans-Serif" font-size="9.00">Header.js</text>
</a>
</g>
</g>
<!-- src/components/Header.js&#45;&gt;src/assets/logo.svg -->
<g id="edge4" class="edge">
<title>src/components/Header.js&#45;&gt;src/assets/logo.svg</title>
<path fill="none" stroke="#000000" stroke-width="2" stroke-opacity="0.200000" d="M410.36,-255.38C418.15,-253.37 426.07,-249.91 431.64,-244 442.58,-232.38 432.4,-223.22 439.64,-209 444.54,-199.37 452.34,-190.19 459.23,-183.15"/>
<polygon fill="#000000" fill-opacity="0.200000" stroke="#000000" stroke-width="2" stroke-opacity="0.200000" points="461.01,-184.35 463.81,-178.64 458.06,-181.35 461.01,-184.35"/>
</g>
<!-- src/containers/CounterContainer.js -->
<g id="node9" class="node">
<title>src/containers/CounterContainer.js</title>
<g id="a_node9"><a xlink:href="src/containers/CounterContainer.js" xlink:title="CounterContainer.js">
<path fill="#ffffcc" stroke="black" d="M312.22,-189.5C312.22,-189.5 228.45,-189.5 228.45,-189.5 225.61,-189.5 222.78,-186.67 222.78,-183.83 222.78,-183.83 222.78,-178.17 222.78,-178.17 222.78,-175.33 225.61,-172.5 228.45,-172.5 228.45,-172.5 312.22,-172.5 312.22,-172.5 315.05,-172.5 317.88,-175.33 317.88,-178.17 317.88,-178.17 317.88,-183.83 317.88,-183.83 317.88,-186.67 315.05,-189.5 312.22,-189.5"/>
<text text-anchor="middle" x="270.33" y="-178.3" font-family="Helvetica,sans-Serif" font-size="9.00">CounterContainer.js</text>
</a>
</g>
</g>
<!-- src/containers/CounterContainer.js&#45;&gt;src/actions/counter.js -->
<g id="edge6" class="edge">
<title>src/containers/CounterContainer.js&#45;&gt;src/actions/counter.js</title>
<path fill="none" stroke="#000000" stroke-width="2" stroke-opacity="0.200000" d="M316.29,-172.46C327.49,-170.33 339.26,-168.09 349.7,-166.11"/>
<polygon fill="#000000" fill-opacity="0.200000" stroke="#000000" stroke-width="2" stroke-opacity="0.200000" points="350.17,-168.16 355.68,-164.98 349.39,-164.03 350.17,-168.16"/>
</g>
<!-- src/containers/CounterContainer.js&#45;&gt;src/constants/actionTypes.js -->
<g id="edge8" class="edge">
<title>src/containers/CounterContainer.js&#45;&gt;src/constants/actionTypes.js</title>
<path fill="none" stroke="#000000" stroke-width="2" stroke-opacity="0.200000" d="M298.55,-189.51C309.48,-192.52 322.28,-195.52 334.11,-197 355.61,-199.7 415.08,-210.98 431.64,-197 447.83,-183.33 423.83,-164.11 439.64,-150 457.74,-133.85 524.39,-144 548.65,-144 548.65,-144 548.65,-144 633.66,-144 671.43,-144 714.23,-139.72 744.94,-135.89"/>
<polygon fill="#000000" fill-opacity="0.200000" stroke="#000000" stroke-width="2" stroke-opacity="0.200000" points="745.23,-137.97 750.92,-135.13 744.7,-133.81 745.23,-137.97"/>
</g>
<!-- src/containers/CounterContainer.js&#45;&gt;src/components/Counter.js -->
<g id="edge7" class="edge">
<title>src/containers/CounterContainer.js&#45;&gt;src/components/Counter.js</title>
<path fill="none" stroke="#000000" stroke-width="2" stroke-opacity="0.200000" d="M291.09,-189.58C309.41,-197.53 336.74,-209.4 356.63,-218.04"/>
<polygon fill="#000000" fill-opacity="0.200000" stroke="#000000" stroke-width="2" stroke-opacity="0.200000" points="355.94,-220.03 362.28,-220.49 357.62,-216.18 355.94,-220.03"/>
</g>
<!-- src/styles/spreadsheet.css -->
<g id="node10" class="node">
<title>src/styles/spreadsheet.css</title>
<g id="a_node10"><a xlink:href="src/styles/spreadsheet.css" xlink:title="spreadsheet.css">
<path fill="#ffffcc" stroke="black" d="M417.74,-80.5C417.74,-80.5 348,-80.5 348,-80.5 345.17,-80.5 342.34,-77.67 342.34,-74.83 342.34,-74.83 342.34,-69.17 342.34,-69.17 342.34,-66.33 345.17,-63.5 348,-63.5 348,-63.5 417.74,-63.5 417.74,-63.5 420.58,-63.5 423.41,-66.33 423.41,-69.17 423.41,-69.17 423.41,-74.83 423.41,-74.83 423.41,-77.67 420.58,-80.5 417.74,-80.5"/>
<text text-anchor="middle" x="382.87" y="-69.3" font-family="Helvetica,sans-Serif" font-size="9.00">spreadsheet.css</text>
</a>
</g>
</g>
<!-- src/containers/CounterContainer.js&#45;&gt;src/styles/spreadsheet.css -->
<g id="edge9" class="edge">
<title>src/containers/CounterContainer.js&#45;&gt;src/styles/spreadsheet.css</title>
<path fill="none" stroke="#000000" stroke-width="2" stroke-opacity="0.200000" d="M317.89,-175.35C320.93,-173.66 323.73,-171.57 326.11,-169 343.77,-149.89 321.37,-133.69 334.11,-111 340.3,-99.97 350.95,-90.82 360.62,-84.16"/>
<polygon fill="#000000" fill-opacity="0.200000" stroke="#000000" stroke-width="2" stroke-opacity="0.200000" points="362,-85.76 365.86,-80.72 359.69,-82.25 362,-85.76"/>
</g>
<!-- src/index.js -->
<g id="node11" class="node">
<title>src/index.js</title>
<g id="a_node11"><a xlink:href="src/index.js" xlink:title="index.js">
<path fill="#ffffcc" stroke="black" d="M64.33,-91.5C64.33,-91.5 21.67,-91.5 21.67,-91.5 18.83,-91.5 16,-88.67 16,-85.83 16,-85.83 16,-80.17 16,-80.17 16,-77.33 18.83,-74.5 21.67,-74.5 21.67,-74.5 64.33,-74.5 64.33,-74.5 67.17,-74.5 70,-77.33 70,-80.17 70,-80.17 70,-85.83 70,-85.83 70,-88.67 67.17,-91.5 64.33,-91.5"/>
<text text-anchor="middle" x="43" y="-80.3" font-family="Helvetica,sans-Serif" font-size="9.00">index.js</text>
</a>
</g>
</g>
<!-- src/index.js&#45;&gt;src/store/index.js -->
<g id="edge11" class="edge">
<title>src/index.js&#45;&gt;src/store/index.js</title>
<path fill="none" stroke="#000000" stroke-width="2" stroke-opacity="0.200000" d="M70.28,-81.22C115.56,-78.11 203.75,-71.84 206.56,-70 212.88,-65.86 208.64,-59.7 214.56,-55 257.63,-20.79 279.57,-30.17 334.11,-23 377.09,-17.35 391.69,-6.18 431.64,-23 445.73,-28.93 457.44,-42.15 464.89,-52.38"/>
<polygon fill="#000000" fill-opacity="0.200000" stroke="#000000" stroke-width="2" stroke-opacity="0.200000" points="463.24,-53.67 468.39,-57.4 466.68,-51.28 463.24,-53.67"/>
</g>
<!-- src/routes/index.js -->
<g id="node12" class="node">
<title>src/routes/index.js</title>
<g id="a_node12"><a xlink:href="src/routes/index.js" xlink:title="index.js">
<path fill="#ffffcc" stroke="black" d="M163.61,-222.5C163.61,-222.5 120.94,-222.5 120.94,-222.5 118.11,-222.5 115.28,-219.67 115.28,-216.83 115.28,-216.83 115.28,-211.17 115.28,-211.17 115.28,-208.33 118.11,-205.5 120.94,-205.5 120.94,-205.5 163.61,-205.5 163.61,-205.5 166.44,-205.5 169.28,-208.33 169.28,-211.17 169.28,-211.17 169.28,-216.83 169.28,-216.83 169.28,-219.67 166.44,-222.5 163.61,-222.5"/>
<text text-anchor="middle" x="142.28" y="-211.3" font-family="Helvetica,sans-Serif" font-size="9.00">index.js</text>
</a>
</g>
</g>
<!-- src/index.js&#45;&gt;src/routes/index.js -->
<g id="edge10" class="edge">
<title>src/index.js&#45;&gt;src/routes/index.js</title>
<path fill="none" stroke="#000000" stroke-width="2" stroke-opacity="0.200000" d="M44.18,-91.66C45.08,-112 50.15,-163.23 78,-192 86.26,-200.53 98,-205.76 109.12,-208.96"/>
<polygon fill="#000000" fill-opacity="0.200000" stroke="#000000" stroke-width="2" stroke-opacity="0.200000" points="108.88,-211.06 115.21,-210.53 109.93,-207 108.88,-211.06"/>
</g>
<!-- src/styles/globalStyles.css -->
<g id="node13" class="node">
<title>src/styles/globalStyles.css</title>
<g id="a_node13"><a xlink:href="src/styles/globalStyles.css" xlink:title="globalStyles.css">
<path fill="#ffffcc" stroke="black" d="M417.24,-51.5C417.24,-51.5 348.51,-51.5 348.51,-51.5 345.68,-51.5 342.84,-48.67 342.84,-45.83 342.84,-45.83 342.84,-40.17 342.84,-40.17 342.84,-37.33 345.68,-34.5 348.51,-34.5 348.51,-34.5 417.24,-34.5 417.24,-34.5 420.07,-34.5 422.9,-37.33 422.9,-40.17 422.9,-40.17 422.9,-45.83 422.9,-45.83 422.9,-48.67 420.07,-51.5 417.24,-51.5"/>
<text text-anchor="middle" x="382.87" y="-40.3" font-family="Helvetica,sans-Serif" font-size="9.00">globalStyles.css</text>
</a>
</g>
</g>
<!-- src/index.js&#45;&gt;src/styles/globalStyles.css -->
<g id="edge12" class="edge">
<title>src/index.js&#45;&gt;src/styles/globalStyles.css</title>
<path fill="none" stroke="#000000" stroke-width="2" stroke-opacity="0.200000" d="M70,-84.03C102.18,-84.96 158.6,-85.45 206.56,-80 254.77,-74.52 309.31,-61.98 344.58,-53.02"/>
<polygon fill="#000000" fill-opacity="0.200000" stroke="#000000" stroke-width="2" stroke-opacity="0.200000" points="345.21,-55.03 350.5,-51.5 344.16,-50.96 345.21,-55.03"/>
</g>
<!-- src/utils/serviceWorker.js -->
<g id="node14" class="node">
<title>src/utils/serviceWorker.js</title>
<g id="a_node14"><a xlink:href="src/utils/serviceWorker.js" xlink:title="serviceWorker.js">
<path fill="#ffffcc" stroke="black" d="M177.47,-41.5C177.47,-41.5 107.09,-41.5 107.09,-41.5 104.26,-41.5 101.42,-38.67 101.42,-35.83 101.42,-35.83 101.42,-30.17 101.42,-30.17 101.42,-27.33 104.26,-24.5 107.09,-24.5 107.09,-24.5 177.47,-24.5 177.47,-24.5 180.3,-24.5 183.13,-27.33 183.13,-30.17 183.13,-30.17 183.13,-35.83 183.13,-35.83 183.13,-38.67 180.3,-41.5 177.47,-41.5"/>
<text text-anchor="middle" x="142.28" y="-30.3" font-family="Helvetica,sans-Serif" font-size="9.00">serviceWorker.js</text>
</a>
</g>
</g>
<!-- src/index.js&#45;&gt;src/utils/serviceWorker.js -->
<g id="edge13" class="edge">
<title>src/index.js&#45;&gt;src/utils/serviceWorker.js</title>
<path fill="none" stroke="#000000" stroke-width="2" stroke-opacity="0.200000" d="M49.63,-74.19C55.61,-65.61 65.85,-52.88 78,-46 83.27,-43.02 89.13,-40.71 95.1,-38.94"/>
<polygon fill="#000000" fill-opacity="0.200000" stroke="#000000" stroke-width="2" stroke-opacity="0.200000" points="95.84,-40.91 101.09,-37.33 94.75,-36.86 95.84,-40.91"/>
</g>
<!-- src/routes/index.js&#45;&gt;src/components/Header.js -->
<g id="edge18" class="edge">
<title>src/routes/index.js&#45;&gt;src/components/Header.js</title>
<path fill="none" stroke="#000000" stroke-width="2" stroke-opacity="0.200000" d="M169.72,-218.88C213.73,-226.99 301.86,-243.24 349.51,-252.03"/>
<polygon fill="#000000" fill-opacity="0.200000" stroke="#000000" stroke-width="2" stroke-opacity="0.200000" points="349.39,-254.15 355.67,-253.17 350.15,-250.01 349.39,-254.15"/>
</g>
<!-- src/routes/index.js&#45;&gt;src/containers/CounterContainer.js -->
<g id="edge19" class="edge">
<title>src/routes/index.js&#45;&gt;src/containers/CounterContainer.js</title>
<path fill="none" stroke="#000000" stroke-width="2" stroke-opacity="0.200000" d="M169.4,-207.16C187.04,-202.54 210.65,-196.36 230.48,-191.17"/>
<polygon fill="#000000" fill-opacity="0.200000" stroke="#000000" stroke-width="2" stroke-opacity="0.200000" points="231.24,-193.14 236.51,-189.59 230.17,-189.08 231.24,-193.14"/>
</g>
<!-- src/reducers/counter.js -->
<g id="node15" class="node">
<title>src/reducers/counter.js</title>
<g id="a_node15"><a xlink:href="src/reducers/counter.js" xlink:title="counter.js">
<path fill="#ffffcc" stroke="black" d="M721.29,-66.5C721.29,-66.5 678.56,-66.5 678.56,-66.5 675.73,-66.5 672.9,-63.67 672.9,-60.83 672.9,-60.83 672.9,-55.17 672.9,-55.17 672.9,-52.33 675.73,-49.5 678.56,-49.5 678.56,-49.5 721.29,-49.5 721.29,-49.5 724.12,-49.5 726.95,-52.33 726.95,-55.17 726.95,-55.17 726.95,-60.83 726.95,-60.83 726.95,-63.67 724.12,-66.5 721.29,-66.5"/>
<text text-anchor="middle" x="699.92" y="-55.3" font-family="Helvetica,sans-Serif" font-size="9.00">counter.js</text>
</a>
</g>
</g>
<!-- src/reducers/counter.js&#45;&gt;src/constants/actionTypes.js -->
<g id="edge14" class="edge">
<title>src/reducers/counter.js&#45;&gt;src/constants/actionTypes.js</title>
<path fill="none" stroke="#000000" stroke-width="2" stroke-opacity="0.200000" d="M724.14,-66.56C727.99,-68.42 731.82,-70.57 735.19,-73 752.04,-85.14 767.46,-103.61 776.95,-116.21"/>
<polygon fill="#000000" fill-opacity="0.200000" stroke="#000000" stroke-width="2" stroke-opacity="0.200000" points="775.39,-117.63 780.64,-121.21 778.77,-115.14 775.39,-117.63"/>
</g>
<!-- src/reducers/data.js -->
<g id="node16" class="node">
<title>src/reducers/data.js</title>
<g id="a_node16"><a xlink:href="src/reducers/data.js" xlink:title="data.js">
<path fill="#ffffcc" stroke="black" d="M721.26,-95.5C721.26,-95.5 678.59,-95.5 678.59,-95.5 675.76,-95.5 672.92,-92.67 672.92,-89.83 672.92,-89.83 672.92,-84.17 672.92,-84.17 672.92,-81.33 675.76,-78.5 678.59,-78.5 678.59,-78.5 721.26,-78.5 721.26,-78.5 724.09,-78.5 726.92,-81.33 726.92,-84.17 726.92,-84.17 726.92,-89.83 726.92,-89.83 726.92,-92.67 724.09,-95.5 721.26,-95.5"/>
<text text-anchor="middle" x="699.92" y="-84.3" font-family="Helvetica,sans-Serif" font-size="9.00">data.js</text>
</a>
</g>
</g>
<!-- src/reducers/data.js&#45;&gt;src/constants/actionTypes.js -->
<g id="edge15" class="edge">
<title>src/reducers/data.js&#45;&gt;src/constants/actionTypes.js</title>
<path fill="none" stroke="#000000" stroke-width="2" stroke-opacity="0.200000" d="M718.28,-95.7C731.51,-102.33 749.82,-111.51 764.18,-118.71"/>
<polygon fill="#000000" fill-opacity="0.200000" stroke="#000000" stroke-width="2" stroke-opacity="0.200000" points="763.36,-120.65 769.66,-121.46 765.24,-116.89 763.36,-120.65"/>
</g>
<!-- src/reducers/index.js -->
<g id="node17" class="node">
<title>src/reducers/index.js</title>
<g id="a_node17"><a xlink:href="src/reducers/index.js" xlink:title="index.js">
<path fill="#ffffcc" stroke="black" d="M653.99,-72.5C653.99,-72.5 611.33,-72.5 611.33,-72.5 608.49,-72.5 605.66,-69.67 605.66,-66.83 605.66,-66.83 605.66,-61.17 605.66,-61.17 605.66,-58.33 608.49,-55.5 611.33,-55.5 611.33,-55.5 653.99,-55.5 653.99,-55.5 656.83,-55.5 659.66,-58.33 659.66,-61.17 659.66,-61.17 659.66,-66.83 659.66,-66.83 659.66,-69.67 656.83,-72.5 653.99,-72.5"/>
<text text-anchor="middle" x="632.66" y="-61.3" font-family="Helvetica,sans-Serif" font-size="9.00">index.js</text>
</a>
</g>
</g>
<!-- src/reducers/index.js&#45;&gt;src/reducers/counter.js -->
<g id="edge16" class="edge">
<title>src/reducers/index.js&#45;&gt;src/reducers/counter.js</title>
<path fill="none" stroke="#000000" stroke-width="2" stroke-opacity="0.200000" d="M659.83,-61.59C662.09,-61.39 664.39,-61.17 666.7,-60.96"/>
<polygon fill="#000000" fill-opacity="0.200000" stroke="#000000" stroke-width="2" stroke-opacity="0.200000" points="666.97,-63.05 672.75,-60.41 666.58,-58.86 666.97,-63.05"/>
</g>
<!-- src/reducers/index.js&#45;&gt;src/reducers/data.js -->
<g id="edge17" class="edge">
<title>src/reducers/index.js&#45;&gt;src/reducers/data.js</title>
<path fill="none" stroke="#000000" stroke-width="2" stroke-opacity="0.200000" d="M657.96,-72.56C661.4,-73.78 664.97,-75.03 668.5,-76.28"/>
<polygon fill="#000000" fill-opacity="0.200000" stroke="#000000" stroke-width="2" stroke-opacity="0.200000" points="668.03,-78.34 674.38,-78.35 669.42,-74.38 668.03,-78.34"/>
</g>
<!-- src/store/storeDev.js&#45;&gt;src/reducers/index.js -->
<g id="edge22" class="edge">
<title>src/store/storeDev.js&#45;&gt;src/reducers/index.js</title>
<path fill="none" stroke="#000000" stroke-width="2" stroke-opacity="0.200000" d="M579.9,-56.33C586.15,-57.26 592.8,-58.24 599.16,-59.19"/>
<polygon fill="#000000" fill-opacity="0.200000" stroke="#000000" stroke-width="2" stroke-opacity="0.200000" points="599.17,-61.31 605.42,-60.11 599.79,-57.16 599.17,-61.31"/>
</g>
<!-- src/store/storeProd.js&#45;&gt;src/reducers/index.js -->
<g id="edge23" class="edge">
<title>src/store/storeProd.js&#45;&gt;src/reducers/index.js</title>
<path fill="none" stroke="#000000" stroke-width="2" stroke-opacity="0.200000" d="M581.74,-74.48C587.51,-73.27 593.54,-72 599.35,-70.78"/>
<polygon fill="#000000" fill-opacity="0.200000" stroke="#000000" stroke-width="2" stroke-opacity="0.200000" points="600.09,-72.77 605.53,-69.48 599.22,-68.66 600.09,-72.77"/>
</g>
<!-- src/tests/CounterContainer.test.js -->
<g id="node20" class="node">
<title>src/tests/CounterContainer.test.js</title>
<g id="a_node20"><a xlink:href="src/tests/CounterContainer.test.js" xlink:title="CounterContainer.test.js">
<path fill="#ffffcc" stroke="black" d="M192.67,-163.5C192.67,-163.5 91.89,-163.5 91.89,-163.5 89.05,-163.5 86.22,-160.67 86.22,-157.83 86.22,-157.83 86.22,-152.17 86.22,-152.17 86.22,-149.33 89.05,-146.5 91.89,-146.5 91.89,-146.5 192.67,-146.5 192.67,-146.5 195.5,-146.5 198.34,-149.33 198.34,-152.17 198.34,-152.17 198.34,-157.83 198.34,-157.83 198.34,-160.67 195.5,-163.5 192.67,-163.5"/>
<text text-anchor="middle" x="142.28" y="-152.3" font-family="Helvetica,sans-Serif" font-size="9.00">CounterContainer.test.js</text>
</a>
</g>
</g>
<!-- src/tests/CounterContainer.test.js&#45;&gt;src/containers/CounterContainer.js -->
<g id="edge24" class="edge">
<title>src/tests/CounterContainer.test.js&#45;&gt;src/containers/CounterContainer.js</title>
<path fill="none" stroke="#000000" stroke-width="2" stroke-opacity="0.200000" d="M184.55,-163.51C196.52,-165.98 209.69,-168.7 222,-171.24"/>
<polygon fill="#000000" fill-opacity="0.200000" stroke="#000000" stroke-width="2" stroke-opacity="0.200000" points="221.66,-173.31 227.96,-172.47 222.51,-169.2 221.66,-173.31"/>
</g>
</g>
</svg>
